# xmcd CD database file
#
# Track frame offsets:
#	150
#	15160
#	26753
#	43241
#	72909
#	89082
#	103461
#	121165
#	140351
#	155724
#	168708
#	182546
#	194640
#	205939
#	229944
#	249494
#	272635
#	294021
#	315156
#	329916
#
# Disc length: 4579 seconds
#
# Revision: 1
# Processed by: cddbd v1.5.2PL0 Copyright (c) Steve Scherf et al.
# Submitted via: CDex 1.70beta2
#
DISCID=2a11e114
DTITLE=Jazz in Paris - Disc 2 - Nuages
DYEAR=1900
DGENRE=Jazz
TTITLE0=Quintette du Hot Club de France - Swing 39
TTITLE1=Stéphane Grappelli Quartet - Body and Soul
TTITLE2=Les amis de Django - Minor Swing
TTITLE3=Oscar Peterson Quartet featuring Stéphane Grappelli - Autumn Leaves
TTITLE4=Alain Goraguer Trio - Stella by Starlight
TTITLE5=Bernard Pfeiffer - Caravan
TTITLE6=Le Jazz Groupe de Paris - Parisian Thoroughfare
TTITLE7=Chet Baker Quartet - Summertime
TTITLE8=Dizzy Gillespie and his Operatic String Orchestra - Sweet and Lovely
TTITLE9=Earl Hines Trio - Hallelujah
TTITLE10=Buck Clayton Quintet - Please Don't talk about Me when I'm gone
TTITLE11=Sidney Bechet and His Feetwarmers - It Had to Be You
TTITLE12=June Richmond with the Quincy Jones Orchestra - Between the Devil and the deep blue Sea
TTITLE13=Rhoda Scott and Kenny Clarke - Satin Doll
TTITLE14=Eddy Louiss Quartet - Angel Eyes
TTITLE15=Slide Hampton and His Orchestra - I Remenber Clifford
TTITLE16=Max Roach - Nica
TTITLE17=René Thomas Quintet - A Night in Tunisia
TTITLE18=Django Reinhardt and ses Rythmes - Nuages
TTITLE19=Sarah Vaughan with the Quincy Jones Orchestra - Misty
EXTD=
EXTT0=
EXTT1=
EXTT2=
EXTT3=
EXTT4=
EXTT5=
EXTT6=
EXTT7=
EXTT8=
EXTT9=
EXTT10=
EXTT11=
EXTT12=
EXTT13=
EXTT14=
EXTT15=
EXTT16=
EXTT17=
EXTT18=
EXTT19=
PLAYORDER=
